<svg width="200" height="20" viewBox="0 0 200 20" fill="none" xmlns="http://www.w3.org/2000/svg">
<path d="M9.33801 19H5.40247V3.71484H0.362427V0.439453H14.3781V3.71484H9.33801V19ZM32.4968 19L31.1511 14.582H24.3845L23.0388 19H18.7986L25.3493 0.363281H30.1609L36.737 19H32.4968ZM30.2116 11.2812C28.9675 7.27799 28.265 5.014 28.1042 4.48926C27.9519 3.96452 27.8419 3.5498 27.7741 3.24512C27.4949 4.32845 26.695 7.00716 25.3747 11.2812H30.2116ZM46.9212 8.67871H48.1908C49.4349 8.67871 50.3532 8.47135 50.9456 8.05664C51.5381 7.64193 51.8343 6.99023 51.8343 6.10156C51.8343 5.22135 51.5296 4.59505 50.9202 4.22266C50.3193 3.85026 49.3841 3.66406 48.1146 3.66406H46.9212V8.67871ZM46.9212 11.8779V19H42.9857V0.439453H48.3939C50.916 0.439453 52.7822 0.900716 53.9925 1.82324C55.2028 2.7373 55.8079 4.12956 55.8079 6C55.8079 7.0918 55.5075 8.0651 54.9066 8.91992C54.3057 9.76628 53.4551 10.4307 52.3548 10.9131C55.1478 15.0856 56.9674 17.7812 57.8138 19H53.4466L49.0159 11.8779H46.9212ZM71.0956 8.57715H78.4589V18.2002C77.2655 18.5895 76.1399 18.8604 75.082 19.0127C74.0325 19.1735 72.9576 19.2539 71.8573 19.2539C69.0559 19.2539 66.9146 18.4329 65.4335 16.791C63.9609 15.1406 63.2245 12.7751 63.2245 9.69434C63.2245 6.69824 64.0794 4.3623 65.789 2.68652C67.5071 1.01074 69.8853 0.172852 72.9238 0.172852C74.828 0.172852 76.6646 0.553711 78.4335 1.31543L77.1259 4.46387C75.7717 3.78678 74.3626 3.44824 72.8984 3.44824C71.1972 3.44824 69.8346 4.01953 68.8105 5.16211C67.7864 6.30469 67.2743 7.84082 67.2743 9.77051C67.2743 11.7848 67.6848 13.3252 68.5058 14.3916C69.3352 15.4495 70.537 15.9785 72.1113 15.9785C72.9322 15.9785 73.7659 15.8939 74.6122 15.7246V11.8525H71.0956V8.57715ZM97.479 19H86.7896V0.439453H97.479V3.66406H90.7251V7.73926H97.0093V10.9639H90.7251V15.75H97.479V19ZM112.424 19H108.488V3.71484H103.448V0.439453H117.464V3.71484H112.424V19ZM142.733 19L138.264 4.43848H138.15C138.311 7.40072 138.391 9.37695 138.391 10.3672V19H134.874V0.439453H140.232L144.624 14.6328H144.701L149.36 0.439453H154.717V19H151.048V10.2148C151.048 9.80013 151.052 9.32194 151.061 8.78027C151.078 8.23861 151.137 6.7998 151.239 4.46387H151.124L146.338 19H142.733ZM173.89 0.439453H177.863L171.554 19H167.263L160.966 0.439453H164.939L168.431 11.4844C168.625 12.1361 168.824 12.8978 169.027 13.7695C169.239 14.6328 169.37 15.2337 169.421 15.5723C169.514 14.7936 169.831 13.431 170.373 11.4844L173.89 0.439453ZM199.511 9.54199C199.511 12.5973 198.64 14.9375 196.896 16.5625C195.161 18.1875 192.652 19 189.368 19H184.112V0.439453H189.939C192.969 0.439453 195.322 1.23926 196.998 2.83887C198.673 4.43848 199.511 6.67285 199.511 9.54199ZM195.423 9.64355C195.423 5.65723 193.663 3.66406 190.142 3.66406H188.047V15.75H189.736C193.528 15.75 195.423 13.7145 195.423 9.64355Z" fill="black"/>
</svg>
